<?xml version="1.0" encoding="UTF-8" standalone="no"?>
<svg
   xmlns:dc="http://purl.org/dc/elements/1.1/"
   xmlns:cc="http://creativecommons.org/ns#"
   xmlns:rdf="http://www.w3.org/1999/02/22-rdf-syntax-ns#"
   xmlns:svg="http://www.w3.org/2000/svg"
   xmlns="http://www.w3.org/2000/svg"
   width="24"
   height="24"
   viewBox="0 0 6.3499998 6.3499998"
   version="1.1"
   id="svg8">
  <defs
     id="defs2" />
  <metadata
     id="metadata5">
    <rdf:RDF>
      <cc:Work
         rdf:about="">
        <dc:format>image/svg+xml</dc:format>
        <dc:type
           rdf:resource="http://purl.org/dc/dcmitype/StillImage" />
        <dc:title></dc:title>
      </cc:Work>
    </rdf:RDF>
  </metadata>
  <path
     id="path21"
     transform="scale(0.26458333)"
     d="M 4.2207031 4.5 C 1.9534073 4.5 0.12695313 6.1107727 0.12695312 8.1113281 L 0.12695312 15.888672 C 0.12695312 17.889227 1.9534073 19.5 4.2207031 19.5 L 13.035156 19.5 C 15.302452 19.5 17.126953 17.889227 17.126953 15.888672 L 17.126953 8.1113281 C 17.126953 6.1107727 15.302452 4.5 13.035156 4.5 L 4.2207031 4.5 z M 22.632812 4.5019531 C 21.9116 4.5697962 20.472237 6.7656238 20.009766 7.4589844 C 19.479363 8.2541897 17.650789 10.94259 17.671875 12.439453 C 17.692887 13.931059 19.59347 16.291167 20.144531 16.990234 C 20.697535 17.691766 22.584029 20.135878 23.115234 19.34375 C 23.644574 18.554405 23.549866 13.438745 23.527344 11.947266 C 23.504742 10.450529 23.44487 5.3180169 22.892578 4.6132812 C 22.823784 4.5254987 22.735843 4.4922613 22.632812 4.5019531 z M 7.2050781 7 L 10.037109 7 L 10.037109 10.716797 L 14.292969 10.716797 L 14.292969 13.283203 L 10.037109 13.283203 L 10.037109 17 L 7.2050781 17 L 7.2050781 13.283203 L 2.9609375 13.283203 L 2.9609375 10.716797 L 7.2050781 10.716797 L 7.2050781 7 z "
     style="fill:#606060;fill-opacity:1;stroke-width:0.40534407" />
</svg>
