<?xml version="1.0" encoding="UTF-8" standalone="no"?>
<svg
   xmlns:dc="http://purl.org/dc/elements/1.1/"
   xmlns:cc="http://creativecommons.org/ns#"
   xmlns:rdf="http://www.w3.org/1999/02/22-rdf-syntax-ns#"
   xmlns:svg="http://www.w3.org/2000/svg"
   xmlns="http://www.w3.org/2000/svg"
   id="svg8"
   version="1.1"
   viewBox="0 0 6.3499998 6.3499998"
   height="24"
   width="24">
  <defs
     id="defs2" />
  <metadata
     id="metadata5">
    <rdf:RDF>
      <cc:Work
         rdf:about="">
        <dc:format>image/svg+xml</dc:format>
        <dc:type
           rdf:resource="http://purl.org/dc/dcmitype/StillImage" />
        <dc:title></dc:title>
      </cc:Work>
    </rdf:RDF>
  </metadata>
  <g
     transform="translate(0,-290.65)"
     id="layer1">
    <g
       transform="translate(10.034284,39.309523)"
       id="layer1-5">
      <path
         id="path85"
         transform="matrix(0.26458333,0,0,0.26458333,-10.034284,251.34048)"
         d="M 12 2 A 9.9999997 9.9999997 0 0 0 2 12 A 9.9999997 9.9999997 0 0 0 12 22 A 9.9999997 9.9999997 0 0 0 22 12 A 9.9999997 9.9999997 0 0 0 12 2 z M 13.484375 5.9375 L 14.861328 5.9375 L 14.861328 13.1875 C 14.861328 14.077704 14.753983 14.767215 14.541016 15.255859 C 14.332781 15.744504 14.000079 16.116629 13.541016 16.373047 C 13.086685 16.629464 12.552739 16.757812 11.9375 16.757812 C 11.024107 16.757812 10.323396 16.49015 9.8359375 15.953125 C 9.3532115 15.4161 9.1216946 14.616177 9.140625 13.556641 L 10.382812 13.382812 C 10.415941 14.195608 10.565052 14.752774 10.830078 15.052734 C 11.095104 15.352695 11.461159 15.501953 11.929688 15.501953 C 12.275168 15.501953 12.573391 15.423328 12.824219 15.263672 C 13.075047 15.099178 13.247145 14.877332 13.341797 14.601562 C 13.436449 14.320955 13.484375 13.877175 13.484375 13.267578 L 13.484375 5.9375 z "
         style="fill:#784421;stroke-width:2.04298782" />
    </g>
  </g>
</svg>
